<svg width="4rem" height="4rem" viewBox="0 0 100 100" fill="none" xmlns="http://www.w3.org/2000/svg">
<path d="M47.5 1.44344C49.047 0.550271 50.953 0.550273 52.5 1.44344L90.8013 23.5567C92.3483 24.4499 93.3013 26.1005 93.3013 27.8868V72.1133C93.3013 73.8996 92.3483 75.5503 90.8013 76.4434L52.5 98.5567C50.953 99.4499 49.047 99.4499 47.5 98.5567L9.19873 76.4434C7.65172 75.5503 6.69873 73.8996 6.69873 72.1133V27.8868C6.69873 26.1005 7.65173 24.4499 9.19873 23.5567L47.5 1.44344Z" fill="#D8D8D8"/>
<path d="M46.5331 8.336C48.469 6.47318 51.531 6.47318 53.4669 8.336L78.1883 32.1242C78.8678 32.7781 79.3485 33.6107 79.575 34.5261L87.8155 67.8296C88.4608 70.4376 86.9298 73.0893 84.3486 73.8344L51.3867 83.3497C50.4807 83.6112 49.5193 83.6112 48.6133 83.3497L15.6514 73.8344C13.0702 73.0893 11.5392 70.4375 12.1845 67.8296L20.425 34.5261C20.6515 33.6107 21.1322 32.778 21.8117 32.1242L46.5331 8.336Z" fill="#FD2667"/>
<path d="M54.4669 92.664C52.531 94.5269 49.469 94.5268 47.5331 92.664L22.8117 68.8758C22.1322 68.222 21.6515 67.3893 21.425 66.4739L13.1845 33.1704C12.5392 30.5625 14.0702 27.9108 16.6514 27.1656L49.6133 17.6504C50.5193 17.3888 51.4807 17.3888 52.3867 17.6504L85.3486 27.1656C87.9298 27.9108 89.4608 30.5625 88.8155 33.1704L80.575 66.4739C80.3485 67.3893 79.8678 68.222 79.1883 68.8758L54.4669 92.664Z" fill="#3469F0"/>
<path d="M39.8891 36.04H43.7691L58.0091 57.12V36.04H62.1291V64H58.2091L43.9691 42.92V64H39.8891V36.04Z" fill="white"/>
</svg>
